<svg xmlns="http://www.w3.org/2000/svg" viewBox="0 0 1440 1440"><defs><style>.a{fill:#ff0;}</style></defs><title>favicon</title><rect class="a" width="1440" height="1440"/><path d="M374,392.79H486.84v688.36q-1.08,77.25-45.52,123.27-45.52,47.18-118.66,48.38H278.25V1136.88h32.11q62.55,0,63.66-64.94Zm0-248H486.84V267.7H374Z"/><path d="M656.51,392.79H769.33v64.84h2.16Q827.36,385.8,918,385.79q70,0,128.08,53.59,57.52,54.19,60.23,159v406.39H993.51V640.68q0-64.22-31.56-97.81-31-34.17-80-34.17t-80.53,34.17q-32.11,33.59-32.11,97.81v364.11H656.51Z"/></svg>