<svg xmlns="http://www.w3.org/2000/svg" xmlns:xlink="http://www.w3.org/1999/xlink" version="1.1" x="0px" y="0px" viewBox="0 0 50 50" enable-background="new 0 0 50 50" xml:space="preserve"><g><path fill="#000000" d="M37.331,24.336H25.648V12.393l0.82,0.1c5.663,0.688,10.09,5.215,10.766,11.005L37.331,24.336z    M27.116,22.835h8.53c-0.848-4.416-4.211-7.854-8.53-8.721V22.835z"/><path fill="#000000" d="M24.351,37.607l-0.819-0.101c-5.664-0.688-10.09-5.216-10.765-11.007l-0.098-0.838h11.682V37.607z    M14.354,27.163c0.848,4.418,4.21,7.854,8.53,8.723v-8.723H14.354z"/><g><path fill="#000000" d="M12.767,23.497l-0.098,0.839h11.682V12.393l-0.819,0.1C17.868,13.181,13.441,17.707,12.767,23.497z"/><path fill="#000000" d="M25.648,25.663v11.944l0.82-0.101c5.664-0.688,10.092-5.216,10.766-11.007l0.097-0.838L25.648,25.663    L25.648,25.663z"/></g><path fill="#000000" d="M48.131,23.755h-4.518C43.009,14.216,35.52,6.568,26.186,5.968h0.032V1.351h-2.435v4.617h0.033   c-9.334,0.601-16.824,8.248-17.43,17.787H1.869v2.49h4.518c0.603,9.526,8.077,17.17,17.396,17.787v4.616h2.435v-4.616   c9.319-0.617,16.794-8.259,17.396-17.787h4.518V23.755z M25.001,42.588c-9.501,0-17.202-7.874-17.202-17.587   S15.5,7.413,25.001,7.413c9.5,0,17.201,7.875,17.201,17.588S34.501,42.588,25.001,42.588z"/></g></svg>